<svg width="28" height="28" viewBox="0 0 28 28" fill="none" xmlns="http://www.w3.org/2000/svg">
<path d="M25.6285 14.8219C25.6185 14.9555 25.6156 15.1056 25.5942 15.269C25.5706 15.4322 25.5448 15.6102 25.5169 15.8026C25.4895 15.9691 25.4631 16.1491 25.4265 16.3355C25.4206 16.3638 25.4167 16.3908 25.4107 16.4197C25.3588 16.6363 25.3013 16.8662 25.2374 17.1082C25.1023 17.5886 24.926 18.1168 24.6866 18.6707C24.4472 19.2246 24.1448 19.8043 23.7578 20.3864C23.6225 20.5927 23.4767 20.7998 23.3211 21.0063C22.5995 21.9636 21.6608 22.908 20.4857 23.6959C19.0594 24.6476 17.2856 25.3569 15.3284 25.5864C15.0849 25.6207 14.8367 25.6252 14.5877 25.6416C14.4633 25.6474 14.3386 25.6527 14.213 25.6585L14.0249 25.6648C13.9619 25.6652 13.8991 25.6617 13.8361 25.6599C13.3316 25.6381 12.8198 25.625 12.31 25.5347C11.2847 25.4014 10.2654 25.0875 9.28082 24.6646C9.03731 24.5515 8.79459 24.4343 8.55264 24.3132C8.31166 24.1908 8.08278 24.0432 7.84843 23.9034L7.50081 23.6872C7.38832 23.6094 7.27836 23.5273 7.16762 23.4466C6.94809 23.2814 6.72369 23.1209 6.51332 22.9425C5.66621 22.2303 4.91853 21.3867 4.2847 20.4539C3.66121 19.5126 3.17926 18.4728 2.83749 17.3842C2.50859 16.2897 2.35125 15.1459 2.33507 14.0001C2.35125 12.854 2.50859 11.7107 2.83749 10.6161C3.17926 9.5274 3.66121 8.48759 4.2847 7.54646C4.91853 6.6137 5.66621 5.76967 6.51332 5.05782C6.72369 4.87942 6.94809 4.71876 7.16762 4.55381C7.27836 4.4729 7.38832 4.39082 7.50081 4.31322L7.84843 4.0968C8.08278 3.957 8.31166 3.8096 8.55264 3.68696C8.79459 3.56608 9.03731 3.4489 9.28082 3.33562C10.2654 2.91253 11.2847 2.5992 12.31 2.46564C12.8198 2.37518 13.3316 2.36192 13.8361 2.34047C13.8991 2.33852 13.9619 2.33521 14.0249 2.3354L14.213 2.34184C14.3386 2.34749 14.4633 2.35315 14.5877 2.35861C14.8367 2.3746 15.0849 2.37927 15.3284 2.41378C17.2856 2.64365 19.0594 3.35278 20.4857 4.30444C21.6608 5.09213 22.5995 6.03639 23.3211 6.9943H20.1531C19.855 6.73147 19.5349 6.47859 19.1857 6.24482C18.0438 5.48423 16.6255 4.91822 15.0601 4.73338C14.8653 4.70472 14.6667 4.70433 14.468 4.69069C14.3684 4.68601 14.2682 4.68132 14.1682 4.67664L14.0178 4.6706C13.9675 4.6704 13.917 4.67372 13.8665 4.67547C13.4636 4.69575 13.0536 4.70121 12.6465 4.77647C11.8257 4.8802 11.0117 5.13581 10.2241 5.47214C10.0305 5.56514 9.83647 5.65892 9.6417 5.7529C9.4483 5.85019 9.26659 5.97049 9.07923 6.08143L8.80024 6.2534C8.71056 6.31579 8.62302 6.38208 8.5347 6.44701C8.35982 6.57959 8.17909 6.70632 8.01083 6.84943C7.33392 7.41933 6.73773 8.09511 6.22926 8.83972C5.73113 9.59251 5.34745 10.4245 5.07196 11.2941C4.80935 12.1697 4.68652 13.0841 4.67034 14.0001C4.68652 14.9163 4.80935 15.8305 5.07196 16.7061C5.34745 17.5759 5.73113 18.4077 6.22926 19.1608C6.73773 19.9052 7.33392 20.5808 8.01083 21.1509C8.17909 21.2939 8.35982 21.4204 8.5347 21.5532C8.62302 21.6183 8.71056 21.6844 8.80024 21.7468L9.07923 21.9187C9.26659 22.0297 9.4483 22.1502 9.6417 22.2475C9.83647 22.3416 10.0305 22.435 10.2241 22.5282C11.0117 22.8644 11.8257 23.1202 12.6465 23.2237C13.0536 23.2992 13.4636 23.3044 13.8665 23.3249C13.917 23.3263 13.9675 23.3298 14.0178 23.3296L14.1682 23.3235C14.2682 23.3187 14.3684 23.3142 14.468 23.3095C14.6667 23.2958 14.8653 23.2956 15.0601 23.2668C16.6255 23.0818 18.0438 22.5161 19.1857 21.7555C19.5349 21.5218 19.855 21.2687 20.1531 21.0063C20.8293 20.4091 21.3783 19.7545 21.8033 19.1088C21.901 18.9624 21.9897 18.8161 22.0745 18.6707C22.528 17.8916 22.804 17.1331 22.9869 16.4864C22.9996 16.4347 23.0123 16.3856 23.0249 16.3355H20.5871H18.031H13.8225V16.3187C13.7661 16.3177 13.7098 16.3156 13.6542 16.2988C13.4472 16.2842 13.2487 16.2029 13.0495 16.1278C13.0027 16.1015 12.9543 16.0787 12.9036 16.059C12.8539 16.0374 12.8137 15.9984 12.7652 15.974C12.7416 15.9604 12.7174 15.9475 12.6925 15.9356L12.6295 15.8829C12.588 15.8469 12.5377 15.8221 12.4967 15.7855C12.3285 15.6414 12.1856 15.4692 12.0518 15.2885C11.9288 15.0993 11.8399 14.8898 11.7631 14.6757C11.6991 14.4561 11.6775 14.2282 11.6611 14.0001C11.6775 13.7718 11.6991 13.5442 11.7631 13.3247C11.8399 13.1106 11.9288 12.9012 12.0518 12.7119C12.1856 12.5313 12.3285 12.359 12.4967 12.2151C12.5377 12.1784 12.588 12.1535 12.6295 12.1176L12.6925 12.065C12.7174 12.0529 12.7416 12.0402 12.7652 12.0264C12.8137 12.002 12.8539 11.963 12.9036 11.9416C12.9543 11.9217 13.0027 11.8989 13.0495 11.8723C13.2487 11.7973 13.4472 11.7164 13.6542 11.7017C13.7098 11.6846 13.7661 11.6828 13.8225 11.6817C13.8681 11.6807 13.9135 11.6805 13.9584 11.6731C13.971 11.6721 13.9835 11.669 13.996 11.669L14.0336 11.6741C14.0588 11.677 14.0835 11.6791 14.1083 11.6805C14.1574 11.6867 14.2083 11.6746 14.2565 11.6869C14.646 11.7396 14.9993 11.8758 15.287 12.0624C15.8589 12.4537 16.1402 12.9968 16.233 13.3801C16.333 13.7681 16.311 14.0016 16.3243 14.0001H18.6591H20.9944H23.3299H25.6649C25.6649 14.0001 25.6589 14.2861 25.6285 14.8219ZM27.9577 13.0139C27.9458 12.8536 27.9403 12.6737 27.9154 12.4775C27.89 12.2818 27.8598 12.0679 27.8238 11.837C27.815 11.7809 27.806 11.7232 27.7967 11.6649H25.4265H23.0249H20.5871H18.031C17.9885 11.5924 17.944 11.5198 17.8943 11.4471C17.5872 10.9835 17.1577 10.5067 16.5863 10.1236C16.0139 9.74576 15.3054 9.46636 14.524 9.37024C14.4273 9.3523 14.3271 9.36049 14.2278 9.35191L14.0785 9.34275L14.0034 9.33749C13.9783 9.3373 13.9531 9.3406 13.9278 9.34177C13.8931 9.34509 13.8576 9.34646 13.8225 9.34841C13.6552 9.35679 13.486 9.35679 13.3185 9.39461C12.9069 9.43887 12.5036 9.57808 12.1084 9.7403C12.0125 9.78826 11.9156 9.83506 11.8171 9.8801C11.7198 9.9269 11.6325 9.99299 11.5375 10.0464L11.3962 10.1293L11.2657 10.2289C11.1798 10.2969 11.086 10.3558 11.0025 10.428C10.6653 10.714 10.3713 11.0538 10.1127 11.4223C9.86493 11.7994 9.67796 12.2161 9.53486 12.6485C9.40482 13.0866 9.34945 13.5429 9.33327 14.0001C9.34945 14.4575 9.40482 14.9137 9.53486 15.3518C9.67796 15.7843 9.86493 16.2009 10.1127 16.578C10.3713 16.9463 10.6653 17.2866 11.0025 17.5722C11.086 17.6443 11.1798 17.7032 11.2657 17.7715L11.3962 17.8711L11.5375 17.9542C11.6325 18.0074 11.7198 18.0735 11.8171 18.1205C11.9156 18.1655 12.0125 18.2119 12.1084 18.2601C12.5036 18.4221 12.9069 18.5613 13.3185 18.6058C13.486 18.6432 13.6552 18.6432 13.8225 18.652V18.6707H19.1992C18.8323 19.0799 18.3975 19.4726 17.8857 19.8158C17.0288 20.3847 15.9649 20.807 14.792 20.9472C14.6462 20.97 14.4969 20.9663 14.3481 20.9774C14.273 20.9813 14.1986 20.985 14.1233 20.9889L14.0104 20.9946C13.9728 20.9946 13.935 20.9911 13.8973 20.9899C13.8724 20.9881 13.8472 20.9874 13.8225 20.986C13.5445 20.9714 13.2624 20.9682 12.9828 20.9127C12.3669 20.8388 11.7584 20.6415 11.1671 20.3921C11.022 20.3223 10.8766 20.2519 10.7304 20.1815C10.5853 20.1096 10.4508 20.0164 10.3096 19.9341L10.0999 19.8066C10.0328 19.7594 9.96807 19.7089 9.90197 19.6602C9.77154 19.5598 9.63429 19.4668 9.50874 19.3593C9.00183 18.9314 8.55712 18.4238 8.17382 17.8674C7.80086 17.3029 7.51582 16.6788 7.30663 16.028C7.1105 15.3715 7.02179 14.6864 7.0058 14.0001C7.02179 13.3138 7.1105 12.6288 7.30663 11.9724C7.51582 11.3217 7.80086 10.6976 8.17382 10.1328C8.55712 9.57653 9.00183 9.06881 9.50874 8.64104C9.63429 8.53341 9.77154 8.44061 9.90197 8.3402C9.96807 8.29126 10.0328 8.24077 10.0999 8.19358L10.3096 8.06607C10.4508 7.98398 10.5853 7.8904 10.7304 7.81865C10.8766 7.74807 11.022 7.67826 11.1671 7.60807C11.7584 7.3589 12.3669 7.16158 12.9828 7.08769C13.2624 7.03212 13.5445 7.02901 13.8225 7.01438C13.8472 7.01302 13.8724 7.01204 13.8973 7.01048C13.935 7.00892 13.9728 7.0056 14.0104 7.0058L14.1233 7.01165C14.1986 7.01536 14.273 7.01906 14.3481 7.02296C14.4969 7.03388 14.6462 7.02998 14.792 7.05318C15.9649 7.19337 17.0288 7.61567 17.8857 8.1846C18.3973 8.52776 18.8323 8.92083 19.1992 9.32969H22.0745H24.6864H27.1917C26.9341 8.5962 26.5896 7.80363 26.12 6.9943C25.9934 6.77573 25.8585 6.55619 25.7123 6.33626C24.7966 4.93966 23.5003 3.51324 21.7854 2.36465C20.0748 1.22112 17.9461 0.368702 15.5965 0.0939846C15.3044 0.0540142 15.0063 0.0452423 14.7078 0.0265236C14.5583 0.0200901 14.4082 0.0134602 14.2578 0.00702667L14.0321 9.53674e-06C13.9566 -0.000185013 13.881 0.00351524 13.8055 0.00546455C13.2 0.0282764 12.5854 0.0491467 11.9737 0.154627C10.7436 0.318016 9.51887 0.689442 8.33779 1.1993C8.04515 1.33422 7.75329 1.47518 7.46377 1.62141C7.17483 1.76901 6.89838 1.94351 6.61802 2.11216C6.47921 2.19892 6.34039 2.28588 6.20138 2.37303C6.06608 2.46584 5.9337 2.56372 5.80054 2.66062C5.53636 2.85793 5.26829 3.05232 5.01542 3.26621C3.9985 4.12019 3.09894 5.1321 2.34034 6.2534C1.59148 7.38288 1.01108 8.63032 0.603022 9.93801C0.207442 11.2515 0.0163769 12.6245 0 14.0001C0.0163769 15.376 0.207442 16.7488 0.603022 18.0622C1.01108 19.3701 1.59148 20.6175 2.34034 21.747C3.09894 22.8679 3.9985 23.8802 5.01542 24.734C5.26829 24.948 5.53636 25.1424 5.80054 25.3396C5.9337 25.437 6.06608 25.5343 6.20138 25.6269C6.34039 25.7143 6.47921 25.8011 6.61802 25.8878C6.89838 26.0565 7.17483 26.2308 7.46377 26.3792C7.75329 26.5252 8.04515 26.666 8.33779 26.8011C9.51887 27.3107 10.7436 27.682 11.9737 27.8455C12.5854 27.9508 13.2 27.9721 13.8055 27.9951C13.881 27.997 13.9566 28.0004 14.0321 28L14.2578 27.9933C14.4082 27.9865 14.5583 27.9801 14.7078 27.9738C15.0063 27.9551 15.3044 27.9462 15.5965 27.9064C17.9461 27.6315 20.0748 26.779 21.7854 25.6357C23.5003 24.4869 24.7966 23.0607 25.7123 21.6639C25.8585 21.444 25.9934 21.2246 26.12 21.0063C26.5896 20.1965 26.9343 19.404 27.1917 18.6707C27.3065 18.3443 27.404 18.0292 27.488 17.7303C27.5658 17.44 27.6344 17.1637 27.6953 16.9034C27.7378 16.7061 27.7682 16.516 27.7967 16.3355C27.806 16.2772 27.815 16.2197 27.8238 16.1633C27.8598 15.9327 27.89 15.7186 27.9154 15.5226C27.9403 15.3267 27.9458 15.1465 27.9577 14.9863C27.9959 14.3432 28 14.0001 28 14.0001C28 14.0001 27.9959 13.6571 27.9577 13.0139Z" fill="#0C3450"/>
</svg>
