<svg width="118" height="32" viewBox="0 0 118 32" fill="none" xmlns="http://www.w3.org/2000/svg">
<path d="M21.9673 16.7045C21.9587 16.819 21.9562 16.9476 21.9379 17.0877C21.9176 17.2276 21.8956 17.3802 21.8717 17.5451C21.8481 17.6878 21.8256 17.8421 21.7941 18.0018C21.7891 18.0261 21.7858 18.0493 21.7806 18.074C21.7361 18.2597 21.6868 18.4567 21.632 18.6641C21.5162 19.0759 21.3652 19.5287 21.1599 20.0034C20.9547 20.4782 20.6955 20.9751 20.3638 21.4741C20.2479 21.6509 20.1229 21.8284 19.9895 22.0054C19.371 22.8259 18.5664 23.6355 17.5592 24.3108C16.3366 25.1265 14.8162 25.7345 13.1386 25.9312C12.9299 25.9606 12.7172 25.9645 12.5038 25.9785C12.3971 25.9835 12.2902 25.988 12.1826 25.993L12.0213 25.9984C11.9673 25.9987 11.9135 25.9957 11.8595 25.9942C11.4271 25.9755 10.9884 25.9643 10.5514 25.8869C9.67256 25.7726 8.7989 25.5035 7.95499 25.141C7.74627 25.0441 7.53822 24.9437 7.33083 24.8399C7.12428 24.7349 6.92809 24.6084 6.72723 24.4886L6.42927 24.3033C6.33285 24.2366 6.23859 24.1662 6.14367 24.097C5.95551 23.9555 5.76316 23.818 5.58285 23.665C4.85675 23.0546 4.21588 22.3314 3.6726 21.5319C3.13818 20.7251 2.72508 19.8338 2.43214 18.9008C2.15022 17.9626 2.01536 16.9822 2.00149 16.0001C2.01536 15.0177 2.15022 14.0378 2.43214 13.0995C2.72508 12.1663 3.13818 11.2751 3.6726 10.4684C4.21588 9.6689 4.85675 8.94544 5.58285 8.33528C5.76316 8.18237 5.95551 8.04466 6.14367 7.90327C6.23859 7.83392 6.33285 7.76357 6.42927 7.69705L6.72723 7.51155C6.92809 7.39172 7.12428 7.26538 7.33083 7.16026C7.53822 7.05664 7.74627 6.95621 7.95499 6.85911C8.7989 6.49646 9.67256 6.22789 10.5514 6.11342C10.9884 6.03587 11.4271 6.02451 11.8595 6.00613C11.9135 6.00446 11.9673 6.00161 12.0213 6.00178L12.1826 6.00729C12.2902 6.01214 12.3971 6.01699 12.5038 6.02167C12.7172 6.03538 12.9299 6.03938 13.1386 6.06896C14.8162 6.266 16.3366 6.87381 17.5592 7.68953C18.5664 8.36469 19.371 9.17406 19.9895 9.99512H17.2741C17.0186 9.76984 16.7442 9.55309 16.4449 9.35271C15.4661 8.70077 14.2504 8.21562 12.9087 8.05719C12.7417 8.03263 12.5714 8.03229 12.4011 8.02059C12.3158 8.01658 12.2299 8.01257 12.1441 8.00856L12.0153 8.00338C11.9722 8.00321 11.9289 8.00605 11.8856 8.00755C11.5402 8.02493 11.1888 8.02962 10.8398 8.09413C10.1363 8.18303 9.43861 8.40213 8.76348 8.69041C8.59753 8.77013 8.43126 8.85051 8.26431 8.93106C8.09854 9.01446 7.94279 9.11757 7.7822 9.21266L7.54306 9.36006C7.46619 9.41354 7.39116 9.47036 7.31546 9.52601C7.16556 9.63965 7.01065 9.74828 6.86643 9.87094C6.28622 10.3594 5.77519 10.9387 5.33937 11.5769C4.9124 12.2222 4.58352 12.9353 4.3474 13.6806C4.1223 14.4312 4.01702 15.2149 4.00315 16.0001C4.01702 16.7854 4.1223 17.569 4.3474 18.3195C4.58352 19.0651 4.9124 19.778 5.33937 20.4236C5.77519 21.0616 6.28622 21.6407 6.86643 22.1294C7.01065 22.2519 7.16556 22.3603 7.31546 22.4741C7.39116 22.53 7.46619 22.5866 7.54306 22.6401L7.7822 22.7875C7.94279 22.8826 8.09854 22.9859 8.26431 23.0693C8.43126 23.15 8.59753 23.23 8.76348 23.3099C9.43861 23.598 10.1363 23.8173 10.8398 23.906C11.1888 23.9707 11.5402 23.9752 11.8856 23.9928C11.9289 23.9939 11.9722 23.9969 12.0153 23.9968L12.1441 23.9916C12.2299 23.9874 12.3158 23.9836 12.4011 23.9796C12.5714 23.9679 12.7417 23.9677 12.9087 23.943C14.2504 23.7844 15.4661 23.2996 16.4449 22.6476C16.7442 22.4472 17.0186 22.2303 17.2741 22.0054C17.8537 21.4935 18.3242 20.9325 18.6885 20.379C18.7723 20.2535 18.8483 20.1281 18.921 20.0034C19.3097 19.3356 19.5463 18.6855 19.7031 18.1312C19.7139 18.0869 19.7248 18.0448 19.7357 18.0018H17.6461H15.4551H11.8478V17.9875C11.7996 17.9866 11.7513 17.9848 11.7036 17.9704C11.5262 17.9579 11.356 17.8882 11.1852 17.8239C11.1451 17.8013 11.1037 17.7817 11.0603 17.7649C11.0176 17.7463 10.9832 17.7129 10.9416 17.692C10.9214 17.6803 10.9007 17.6693 10.8793 17.6591L10.8253 17.614C10.7897 17.583 10.7466 17.5618 10.7115 17.5304C10.5673 17.4069 10.4448 17.2593 10.3301 17.1044C10.2247 16.9423 10.1485 16.7626 10.0827 16.5792C10.0278 16.391 10.0093 16.1956 9.99525 16.0001C10.0093 15.8044 10.0278 15.6094 10.0827 15.4212C10.1485 15.2377 10.2247 15.0582 10.3301 14.8959C10.4448 14.7412 10.5673 14.5934 10.7115 14.4701C10.7466 14.4387 10.7897 14.4173 10.8253 14.3865L10.8793 14.3414C10.9007 14.331 10.9214 14.3202 10.9416 14.3083C10.9832 14.2874 11.0176 14.254 11.0603 14.2356C11.1037 14.2186 11.1451 14.199 11.1852 14.1763C11.356 14.112 11.5262 14.0426 11.7036 14.0301C11.7513 14.0154 11.7996 14.0139 11.8478 14.0129C11.887 14.012 11.9259 14.0119 11.9643 14.0055C11.9752 14.0047 11.9859 14.002 11.9966 14.002L12.0288 14.0063C12.0504 14.0088 12.0716 14.0107 12.0928 14.0118C12.1349 14.0172 12.1786 14.0068 12.2198 14.0174C12.5537 14.0625 12.8565 14.1793 13.1032 14.3392C13.5933 14.6746 13.8345 15.1401 13.914 15.4686C13.9997 15.8012 13.9809 16.0014 13.9922 16.0001H15.9935H17.9952H19.997H21.9985C21.9985 16.0001 21.9933 16.2452 21.9673 16.7045ZM23.9637 15.1548C23.9535 15.0174 23.9489 14.8632 23.9275 14.695C23.9057 14.5272 23.8798 14.3439 23.8489 14.146C23.8414 14.0979 23.8337 14.0484 23.8257 13.9985H21.7941H19.7357H17.6461H15.4551C15.4187 13.9363 15.3806 13.8741 15.338 13.8118C15.0748 13.4144 14.7066 13.0058 14.2168 12.6774C13.7262 12.3535 13.1189 12.114 12.4491 12.0316C12.3662 12.0163 12.2803 12.0233 12.1953 12.0159L12.0673 12.0081L12.0029 12.0036C11.9814 12.0034 11.9598 12.0062 11.9381 12.0072C11.9083 12.0101 11.8779 12.0113 11.8478 12.0129C11.7045 12.0201 11.5594 12.0201 11.4159 12.0525C11.0631 12.0905 10.7173 12.2098 10.3786 12.3488C10.2964 12.3899 10.2133 12.4301 10.1289 12.4687C10.0456 12.5088 9.97069 12.5654 9.8893 12.6112L9.76815 12.6822L9.65635 12.7676C9.58266 12.826 9.50228 12.8764 9.43075 12.9383C9.14165 13.1834 8.88965 13.4747 8.66806 13.7906C8.45566 14.1138 8.2954 14.4709 8.17274 14.8416C8.06128 15.2171 8.01382 15.6082 7.99995 16.0001C8.01382 16.3921 8.06128 16.7832 8.17274 17.1587C8.2954 17.5294 8.45566 17.8865 8.66806 18.2097C8.88965 18.5254 9.14165 18.8171 9.43075 19.0619C9.50228 19.1237 9.58266 19.1742 9.65635 19.2327L9.76815 19.3181L9.8893 19.3893C9.97069 19.4349 10.0456 19.4916 10.1289 19.5318C10.2133 19.5704 10.2964 19.6102 10.3786 19.6515C10.7173 19.7904 11.0631 19.9097 11.4159 19.9478C11.5594 19.9799 11.7045 19.9799 11.8478 19.9874V20.0034H16.4564C16.1419 20.3542 15.7693 20.6908 15.3306 20.9849C14.5962 21.4726 13.6842 21.8346 12.6789 21.9547C12.5539 21.9743 12.4259 21.9711 12.2984 21.9806C12.234 21.984 12.1702 21.9872 12.1057 21.9905L12.0089 21.9953C11.9767 21.9953 11.9443 21.9923 11.912 21.9913C11.8906 21.9898 11.8691 21.9892 11.8478 21.988C11.6095 21.9755 11.3677 21.9728 11.1281 21.9252C10.6002 21.8618 10.0786 21.6927 9.57179 21.4789C9.44746 21.4191 9.3228 21.3588 9.19746 21.2985C9.07313 21.2368 8.95783 21.1569 8.83684 21.0864L8.65703 20.9771C8.59954 20.9366 8.54406 20.8934 8.48741 20.8516C8.37561 20.7655 8.25797 20.6858 8.15035 20.5937C7.71586 20.2269 7.33467 19.7919 7.00613 19.3149C6.68645 18.8311 6.44213 18.2961 6.26282 17.7383C6.09471 17.1756 6.01868 16.5883 6.00497 16.0001C6.01868 15.4118 6.09471 14.8247 6.26282 14.262C6.44213 13.7043 6.68645 13.1694 7.00613 12.6853C7.33467 12.2085 7.71586 11.7733 8.15035 11.4066C8.25797 11.3144 8.37561 11.2348 8.48741 11.1488C8.54406 11.1068 8.59954 11.0635 8.65703 11.0231L8.83684 10.9138C8.95783 10.8434 9.07313 10.7632 9.19746 10.7017C9.3228 10.6412 9.44746 10.5814 9.57179 10.5212C10.0786 10.3076 10.6002 10.1385 11.1281 10.0752C11.3677 10.0275 11.6095 10.0249 11.8478 10.0123C11.8691 10.0112 11.8906 10.0103 11.912 10.009C11.9443 10.0077 11.9767 10.0048 12.0089 10.005L12.1057 10.01C12.1702 10.0132 12.234 10.0163 12.2984 10.0197C12.4259 10.029 12.5539 10.0257 12.6789 10.0456C13.6842 10.1657 14.5962 10.5277 15.3306 11.0154C15.7691 11.3095 16.1419 11.6464 16.4564 11.9969H18.921H21.1598H23.3072C23.0864 11.3682 22.7911 10.6888 22.3885 9.99512C22.2801 9.80778 22.1645 9.6196 22.0391 9.43109C21.2542 8.234 20.1431 7.01135 18.6732 6.02685C17.2069 5.04669 15.3824 4.31604 13.3684 4.08056C13.1181 4.04631 12.8625 4.03879 12.6067 4.02274C12.4785 4.01723 12.3498 4.01155 12.221 4.00603L12.0275 4.00002C11.9628 3.99985 11.898 4.00302 11.8333 4.00469C11.3143 4.02424 10.7875 4.04213 10.2631 4.13255C9.20883 4.27259 8.15903 4.59096 7.14668 5.02798C6.89584 5.14362 6.64568 5.26445 6.39752 5.38979C6.14986 5.5163 5.91289 5.66587 5.67259 5.81043C5.55361 5.8848 5.43462 5.95933 5.31547 6.03403C5.1995 6.11358 5.08603 6.19748 4.97189 6.28054C4.74546 6.44966 4.51568 6.61628 4.29893 6.79961C3.42728 7.5316 2.65623 8.39895 2.006 9.36006C1.36413 10.3282 0.866639 11.3974 0.516876 12.5183C0.177807 13.6442 0.0140373 14.821 0 16.0001C0.0140373 17.1794 0.177807 18.3561 0.516876 19.4819C0.866639 20.6029 1.36413 21.6721 2.006 22.6403C2.65623 23.601 3.42728 24.4687 4.29893 25.2005C4.51568 25.384 4.74546 25.5507 4.97189 25.7196C5.08603 25.8032 5.1995 25.8866 5.31547 25.966C5.43462 26.0408 5.55361 26.1152 5.67259 26.1896C5.91289 26.3341 6.14986 26.4835 6.39752 26.6107C6.64568 26.7359 6.89584 26.8565 7.14668 26.9724C8.15903 27.4092 9.20883 27.7274 10.2631 27.8676C10.7875 27.9579 11.3143 27.9761 11.8333 27.9958C11.898 27.9975 11.9628 28.0003 12.0275 28L12.221 27.9943C12.3498 27.9884 12.4785 27.9829 12.6067 27.9776C12.8625 27.9615 13.1181 27.9538 13.3684 27.9198C15.3824 27.6841 17.2069 26.9535 18.6732 25.9735C20.1431 24.9888 21.2542 23.7663 22.0391 22.5691C22.1645 22.3806 22.2801 22.1925 22.3885 22.0054C22.7911 21.3113 23.0866 20.632 23.3072 20.0034C23.4056 19.7237 23.4891 19.4536 23.5612 19.1974C23.6278 18.9486 23.6867 18.7118 23.7388 18.4887C23.7752 18.3195 23.8013 18.1566 23.8257 18.0018C23.8337 17.9519 23.8414 17.9026 23.8489 17.8543C23.8798 17.6566 23.9057 17.4731 23.9275 17.3051C23.9489 17.1372 23.9535 16.9827 23.9637 16.8454C23.9965 16.2942 24 16.0001 24 16.0001C24 16.0001 23.9965 15.7061 23.9637 15.1548Z" fill="#0C3450"/>
<path fill-rule="evenodd" clip-rule="evenodd" d="M46.0481 15.7348C46.0481 16.9965 45.8361 18.1224 45.4122 19.1135C45.0088 20.07 44.4387 20.9192 43.7021 21.6608C42.9512 22.3956 42.0995 22.964 41.1471 23.3658C40.1531 23.7884 39.1105 24 38.0189 24C36.9346 24 35.8951 23.7884 34.901 23.3658C33.9418 22.964 33.0901 22.3956 32.3462 21.6608C31.6092 20.9192 31.0393 20.07 30.6361 19.1135C30.212 18.1224 30 17.0864 30 16.0052C30 14.9171 30.212 13.8776 30.6361 12.8863C31.0393 11.9368 31.6092 11.0876 32.3462 10.339C33.0901 9.60442 33.9418 9.03595 34.901 8.63402C35.8951 8.21141 36.9346 8 38.0189 8C39.7429 8 41.3071 8.50247 42.7113 9.5074C44.0739 10.4848 45.0713 11.8776 45.7041 13.6869H43.3265C42.8051 12.5917 42.0787 11.7461 41.1471 11.1501C40.2016 10.5332 39.159 10.2248 38.0189 10.2248C36.42 10.2248 35.0574 10.7898 33.9312 11.9192C32.7981 13.0491 32.2317 14.4111 32.2317 16.0052C32.2317 17.5995 32.7981 18.9577 33.9312 20.0806C35.0574 21.2102 36.42 21.775 38.0189 21.775C39.3258 21.775 40.4938 21.3836 41.5227 20.6002C42.5306 19.8309 43.184 18.9509 43.483 17.9596H37.779V15.7348H46.0481ZM50.574 21.5573H58.259V23.7199H48.405V8.29162H50.574V21.5573ZM61.2629 16.0052C61.2629 14.3904 61.8397 13.011 62.9939 11.8675C64.1338 10.7238 65.5173 10.1522 67.144 10.1522C68.7636 10.1522 70.1436 10.7238 71.2838 11.8675C72.4378 13.011 73.0148 14.3904 73.0148 16.0052C73.0148 17.6201 72.4378 18.9993 71.2838 20.1428C70.1436 21.2866 68.7636 21.8581 67.144 21.8581C65.5173 21.8581 64.1338 21.2866 62.9939 20.1428C61.8397 18.9993 61.2629 17.6201 61.2629 16.0052ZM61.4714 21.6608C62.2152 22.3956 63.0634 22.9671 64.0158 23.3763C65.0098 23.7921 66.0524 24 67.144 24C68.2285 24 69.2676 23.7921 70.2619 23.3763C71.2142 22.9671 72.0625 22.3956 72.8063 21.6608C73.5499 20.9192 74.1234 20.0737 74.5267 19.124C74.9506 18.1259 75.1627 17.0864 75.1627 16.0052C75.1627 14.9239 74.9506 13.8879 74.5267 12.8969C74.1234 11.9403 73.5499 11.0914 72.8063 10.3495C72.0625 9.61498 71.2142 9.04673 70.2619 8.64458C69.2676 8.22197 68.2285 8.01012 67.144 8.01012C66.0524 8.01012 65.0098 8.22197 64.0158 8.64458C63.0634 9.04673 62.2152 9.61498 61.4714 10.3495C60.7344 11.0914 60.1609 11.9403 59.7509 12.8969C59.3268 13.8879 59.1148 14.9239 59.1148 16.0052C59.1148 17.0864 59.3268 18.1259 59.7509 19.124C60.1609 20.0737 60.7344 20.9192 61.4714 21.6608ZM83.9935 21.5472C84.612 21.5472 85.1369 21.325 85.5681 20.8817C86.0059 20.4448 86.2214 19.9181 86.2144 19.3015C86.2144 18.6844 85.9924 18.1615 85.5471 17.7314C85.1164 17.2949 84.5917 17.0762 83.973 17.0762H79.9897V21.5472H83.9935ZM79.9897 10.4542V14.9139H83.6287C84.2406 14.9073 84.7616 14.6855 85.1927 14.2486C85.6305 13.819 85.8499 13.2958 85.8499 12.679C85.8428 12.0621 85.6202 11.5387 85.1826 11.1091C84.7514 10.6722 84.2265 10.4542 83.6078 10.4542H79.9897ZM87.08 16.1826C87.949 17.0419 88.3834 18.0783 88.3834 19.2909C88.3903 20.504 87.9662 21.5437 87.1116 22.4098C86.2497 23.2693 85.3006 23.7025 84.2649 23.7095V23.7199H77.8208V8.29162H83.3681C84.7442 8.29866 85.8633 8.72831 86.7259 9.58079C87.5805 10.4333 88.0119 11.4624 88.0189 12.6684C88.0253 13.8742 87.6016 14.9108 86.7464 15.7769C86.6488 15.8671 86.6314 15.888 86.6943 15.8394C86.7433 15.8671 86.8715 15.9813 87.08 16.1826ZM103.859 17.627V8.3014H101.701V17.627C101.701 18.7914 101.284 19.7858 100.449 20.6105C99.6291 21.4355 98.6348 21.8478 97.4669 21.8478C96.2923 21.8478 95.2945 21.4355 94.4743 20.6105C93.6403 19.7858 93.223 18.7914 93.223 17.627V8.3014H91.0751V17.627C91.0751 19.3806 91.6971 20.8847 92.9417 22.1391C94.193 23.3798 95.7012 24 97.4669 24C99.2257 24 100.731 23.3798 101.982 22.1391C103.234 20.8847 103.859 19.3806 103.859 17.627ZM112.598 24C111.319 24 110.158 23.6984 109.115 23.0954C107.85 22.361 106.988 21.2175 106.53 19.6646L108.594 19.0616C108.893 20.0876 109.442 20.8255 110.242 21.276C110.93 21.6643 111.719 21.8581 112.609 21.8581C112.747 21.8581 112.866 21.8548 112.963 21.8478C113.06 21.8412 113.178 21.8236 113.318 21.7961C113.707 21.7402 114.058 21.6399 114.371 21.4943C115.247 21.0926 115.723 20.4066 115.799 19.436C115.834 18.9441 115.688 18.5074 115.362 18.1259C114.826 17.5022 113.947 17.1522 112.723 17.0757C110.499 16.9234 108.876 16.3965 107.854 15.4957C107.061 14.782 106.665 13.8706 106.665 12.7616C106.665 11.2852 107.252 10.1001 108.427 9.20601C109.463 8.40919 110.721 8.01012 112.202 8.01012C113.954 8.01012 115.417 8.63073 116.592 9.87128C116.96 10.2664 117.284 10.7031 117.562 11.1811C117.694 11.4379 117.84 11.7392 118 12.0855L115.987 12.8447C115.834 12.5053 115.699 12.2331 115.581 12.0285C115.462 11.8242 115.278 11.5971 115.028 11.3477C114.263 10.5508 113.321 10.1522 112.202 10.1522C111.861 10.1522 111.514 10.1938 111.159 10.2769C110.735 10.374 110.363 10.5159 110.044 10.7031C109.223 11.1675 108.813 11.8536 108.813 12.7616C108.813 14.0369 110.169 14.7611 112.88 14.9345C114.687 15.0592 116.056 15.6587 116.988 16.7329C117.711 17.5647 118.031 18.521 117.947 19.6023C117.829 21.0369 117.214 22.1529 116.102 22.95C115.129 23.6502 113.968 24 112.619 24H112.598Z" fill="#0C3450"/>
</svg>
