<svg width="99" height="18" viewBox="0 0 99 18" fill="none" xmlns="http://www.w3.org/2000/svg">
<path fill-rule="evenodd" clip-rule="evenodd" d="M17.96 8.75106C17.96 10.1629 17.7226 11.4228 17.2483 12.5319C16.7968 13.6023 16.1587 14.5525 15.3345 15.3824C14.4941 16.2046 13.5409 16.8407 12.4751 17.2903C11.3626 17.7632 10.1958 18 8.97417 18C7.76069 18 6.59734 17.7632 5.48486 17.2903C4.4114 16.8407 3.45819 16.2046 2.62575 15.3824C1.80096 14.5525 1.1631 13.6023 0.711934 12.5319C0.237309 11.4228 0 10.2636 0 9.05361C0 7.83601 0.237309 6.67282 0.711934 5.56354C1.1631 4.50103 1.80096 3.55078 2.62575 2.71303C3.45819 1.89104 4.4114 1.25492 5.48486 0.805145C6.59734 0.332237 7.76069 0.095665 8.97417 0.095665C10.9035 0.095665 12.6541 0.657938 14.2257 1.78248C15.7505 2.87625 16.8667 4.43481 17.575 6.45939H14.9142C14.3306 5.23391 13.5177 4.28759 12.4751 3.6207C11.4169 2.93041 10.2501 2.58527 8.97417 2.58527C7.18482 2.58527 5.65994 3.21745 4.39954 4.48134C3.13149 5.74571 2.49758 7.2698 2.49758 9.05361C2.49758 10.8377 3.13149 12.3576 4.39954 13.6141C5.65994 14.8782 7.18482 15.5101 8.97417 15.5101C10.4368 15.5101 11.7439 15.0722 12.8954 14.1956C14.0234 13.3347 14.7546 12.3499 15.0892 11.2407H8.70575V8.75106H17.96ZM23.025 15.2666H31.6256V17.6865H20.5976V0.421997H23.025V15.2666ZM34.9873 9.05361C34.9873 7.24666 35.6328 5.70312 36.9245 4.42348C38.2002 3.1436 39.7486 2.50403 41.569 2.50403C43.3816 2.50403 44.926 3.1436 46.202 4.42348C47.4935 5.70312 48.1392 7.24666 48.1392 9.05361C48.1392 10.8608 47.4935 12.4041 46.202 13.6837C44.926 14.9636 43.3816 15.6032 41.569 15.6032C39.7486 15.6032 38.2002 14.9636 36.9245 13.6837C35.6328 12.4041 34.9873 10.8608 34.9873 9.05361ZM35.2206 15.3824C36.0531 16.2046 37.0023 16.8442 38.0681 17.3021C39.1806 17.7674 40.3474 18 41.569 18C42.7828 18 43.9456 17.7674 45.0584 17.3021C46.1242 16.8442 47.0734 16.2046 47.9059 15.3824C48.7381 14.5525 49.3799 13.6064 49.8313 12.5437C50.3056 11.4268 50.543 10.2636 50.543 9.05361C50.543 7.84364 50.3056 6.68439 49.8313 5.57535C49.3799 4.50497 48.7381 3.55496 47.9059 2.72485C47.0734 1.90286 46.1242 1.26698 45.0584 0.816963C43.9456 0.344055 42.7828 0.106987 41.569 0.106987C40.3474 0.106987 39.1806 0.344055 38.0681 0.816963C37.0023 1.26698 36.0531 1.90286 35.2206 2.72485C34.3958 3.55496 33.754 4.50497 33.2952 5.57535C32.8206 6.68439 32.5833 7.84364 32.5833 9.05361C32.5833 10.2636 32.8206 11.4268 33.2952 12.5437C33.754 13.6064 34.3958 14.5525 35.2206 15.3824ZM60.4258 15.2553C61.118 15.2553 61.7055 15.0066 62.188 14.5106C62.6779 14.0216 62.9192 13.4323 62.9113 12.7423C62.9113 12.0517 62.6629 11.4666 62.1645 10.9853C61.6825 10.4969 61.0953 10.2522 60.4028 10.2522H55.945V15.2553H60.4258ZM55.945 2.84193V7.83247H60.0176C60.7024 7.82508 61.2854 7.57693 61.7679 7.08802C62.2579 6.60723 62.5033 6.02183 62.5033 5.33154C62.4954 4.64126 62.2463 4.05559 61.7566 3.5748C61.2741 3.08589 60.6866 2.84193 59.9941 2.84193H55.945ZM63.88 9.25218C64.8525 10.2138 65.3387 11.3735 65.3387 12.7304C65.3464 14.0879 64.8718 15.2513 63.9154 16.2205C62.9508 17.1823 61.8887 17.6671 60.7295 17.6749V17.6865H53.5178V0.421997H59.726C61.2659 0.429873 62.5184 0.910662 63.4837 1.8646C64.4401 2.81855 64.9229 3.97018 64.9308 5.31973C64.938 6.66903 64.4638 7.82902 63.5067 8.79823C63.3975 8.89916 63.378 8.92254 63.4484 8.86814C63.5032 8.89916 63.6467 9.02693 63.88 9.25218ZM82.6582 10.8684V0.432934H80.2426V10.8684C80.2426 12.1715 79.7759 13.2842 78.8422 14.2071C77.9241 15.1303 76.8114 15.5916 75.5043 15.5916C74.1898 15.5916 73.0731 15.1303 72.1553 14.2071C71.2218 13.2842 70.7548 12.1715 70.7548 10.8684V0.432934H68.3511V10.8684C68.3511 12.8307 69.0472 14.5139 70.44 15.9176C71.8404 17.306 73.5283 18 75.5043 18C77.4727 18 79.1571 17.306 80.5575 15.9176C81.9579 14.5139 82.6582 12.8307 82.6582 10.8684ZM92.4381 18C91.0069 18 89.7077 17.6625 88.5406 16.9877C87.1246 16.166 86.1601 14.8863 85.6467 13.1485L87.9568 12.4738C88.2915 13.622 88.9064 14.4476 89.801 14.9518C90.571 15.3863 91.4538 15.6032 92.45 15.6032C92.6053 15.6032 92.7377 15.5995 92.8466 15.5916C92.9555 15.5842 93.0876 15.5645 93.2434 15.5338C93.679 15.4712 94.0719 15.359 94.4223 15.196C95.4027 14.7465 95.9351 13.9789 96.0208 12.8928C96.0598 12.3423 95.8963 11.8536 95.5309 11.4268C94.9315 10.7289 93.9477 10.3372 92.5782 10.2515C90.0887 10.0812 88.2722 9.49156 87.1286 8.48346C86.2416 7.68486 85.7981 6.66494 85.7981 5.42395C85.7981 3.77185 86.4557 2.44568 87.7702 1.44521C88.9296 0.553556 90.3376 0.106987 91.9951 0.106987C93.9556 0.106987 95.5928 0.801462 96.9078 2.18966C97.32 2.6318 97.682 3.12047 97.9929 3.65541C98.1408 3.9427 98.3043 4.27996 98.4836 4.66745L96.2309 5.517C96.0598 5.13715 95.9082 4.83264 95.7761 4.60369C95.6435 4.37499 95.4375 4.12093 95.1572 3.84177C94.3013 2.9501 93.2474 2.50403 91.9951 2.50403C91.6136 2.50403 91.2244 2.55056 90.8281 2.64361C90.3534 2.75218 89.9369 2.91097 89.5793 3.12047C88.6611 3.64015 88.2021 4.40798 88.2021 5.42395C88.2021 6.85105 89.7193 7.66148 92.7535 7.85546C94.776 7.99505 96.3085 8.66588 97.3513 9.86798C98.1603 10.7988 98.5184 11.8689 98.4248 13.0789C98.2924 14.6842 97.6042 15.9331 96.3591 16.825C95.2701 17.6086 93.9709 18 92.4618 18H92.4381Z" fill="#0C3450"/>
</svg>
